<svg xmlns="http://www.w3.org/2000/svg" width="34" height="32" viewBox="0 0 34 32">
  <path id="Path_3396" data-name="Path 3396" d="M15-13.75a5.827,5.827,0,0,1,2,4.5,5.589,5.589,0,0,1-2.75,5,5.252,5.252,0,0,1-.719,2.719A5.654,5.654,0,0,1,11.594.438a5.537,5.537,0,0,1-2.719.813A5.286,5.286,0,0,1,6.844,3.281,5.473,5.473,0,0,1,4.125,4,5.421,5.421,0,0,1,0,2.188,5.421,5.421,0,0,1-4.125,4,5.414,5.414,0,0,1-6,3.656a5.606,5.606,0,0,1-1.656-.937A5.276,5.276,0,0,1-8.875,1.25,5.357,5.357,0,0,1-12.687-.406,5.291,5.291,0,0,1-14.25-4.25a5.589,5.589,0,0,1-2.75-5,5.827,5.827,0,0,1,2-4.5,5.439,5.439,0,0,1-.187-1.437,5.589,5.589,0,0,1,2.75-5,4.855,4.855,0,0,1,1.219-3.281A5,5,0,0,1-8.25-25.187,5.205,5.205,0,0,1-6.344-27.25,5.084,5.084,0,0,1-3.625-28,4.939,4.939,0,0,1,0-26.5,4.939,4.939,0,0,1,3.625-28a5.082,5.082,0,0,1,1.875.344,5.45,5.45,0,0,1,1.594.969,4.824,4.824,0,0,1,1.156,1.5,5,5,0,0,1,2.969,1.719,4.855,4.855,0,0,1,1.219,3.281,5.589,5.589,0,0,1,2.75,5A5.439,5.439,0,0,1,15-13.75ZM-1.5-19.375v-3.5a2.046,2.046,0,0,0-.625-1.5A2.046,2.046,0,0,0-3.625-25a2.077,2.077,0,0,0-1.312.438,2.1,2.1,0,0,0-.75,1.188L-6-22.187l-1.437-.125a1.837,1.837,0,0,0-1.406.656,2.211,2.211,0,0,0-.594,1.531,15.528,15.528,0,0,0,.375,1.688L-10.25-18a3.867,3.867,0,0,0-1.625,1.563,2.468,2.468,0,0,0,.063,2.563l.563,1.25-1.187.75a2.738,2.738,0,0,0-1.531,2.813A2.815,2.815,0,0,0-12.125-6.5l1.188.5q-.312,1.5-.312,1.688a2.456,2.456,0,0,0,.938,1.969A2.465,2.465,0,0,0-8.25-1.75L-6.937-2a3.144,3.144,0,0,0,.125.469,2.551,2.551,0,0,0,.188.5,3.623,3.623,0,0,1,.219.469,2.661,2.661,0,0,0,.25.5q.094.125.344.406a1.416,1.416,0,0,0,.469.375,5.059,5.059,0,0,0,.531.188A2.385,2.385,0,0,0-4.125,1,2.544,2.544,0,0,0-2.25.25,2.469,2.469,0,0,0-1.5-1.562V-15.187A5.8,5.8,0,0,1-3.937-14a.377.377,0,0,1-.375-.094A.5.5,0,0,1-4.5-14.5v-1a.486.486,0,0,1,.313-.5A3.582,3.582,0,0,0-2.25-17.25,3.311,3.311,0,0,0-1.5-19.375ZM12.125-6.5a2.815,2.815,0,0,0,1.844-2.562,2.738,2.738,0,0,0-1.531-2.812l-1.187-.75.563-1.25a2.468,2.468,0,0,0,.063-2.562A3.867,3.867,0,0,0,10.25-18l-1.187-.437a15.528,15.528,0,0,0,.375-1.687,2.211,2.211,0,0,0-.594-1.531,1.837,1.837,0,0,0-1.406-.656L6-22.187l-.312-1.187a2.1,2.1,0,0,0-.75-1.187A2.077,2.077,0,0,0,3.625-25a2.046,2.046,0,0,0-1.5.625,2.046,2.046,0,0,0-.625,1.5v3.5a3.311,3.311,0,0,0,.75,2.125A3.582,3.582,0,0,0,4.188-16a.486.486,0,0,1,.313.5v1a.5.5,0,0,1-.187.406A.377.377,0,0,1,3.938-14,5.8,5.8,0,0,1,1.5-15.187V-1.562A2.469,2.469,0,0,0,2.25.25,2.544,2.544,0,0,0,4.125,1,2.453,2.453,0,0,0,4.656.938q.281-.063.5-.125A1.105,1.105,0,0,0,5.563.594Q5.75.437,5.875.313a2.168,2.168,0,0,0,.281-.375q.156-.25.219-.375t.188-.406a2.892,2.892,0,0,0,.156-.406,3.834,3.834,0,0,1,.125-.375A1.2,1.2,0,0,0,6.938-2l1.313.25a2.465,2.465,0,0,0,2.063-.594,2.456,2.456,0,0,0,.938-1.969L10.938-6Z" transform="translate(17 28)" fill="#00b8e0"/>
</svg>
