<svg id="crunchbase-seeklogo.com" xmlns="http://www.w3.org/2000/svg" width="21.234" height="21.234" viewBox="0 0 21.234 21.234">
  <path id="Path_2434" data-name="Path 2434" d="M19.112,0H2.122A2.132,2.132,0,0,0,0,2.122v16.99a2.132,2.132,0,0,0,2.122,2.122h16.99a2.132,2.132,0,0,0,2.122-2.122V2.122A2.132,2.132,0,0,0,19.112,0Z" fill="#fff"/>
  <path id="Path_2435" data-name="Path 2435" d="M19.112,0H2.122A2.132,2.132,0,0,0,0,2.122v16.99a2.132,2.132,0,0,0,2.122,2.122h16.99a2.132,2.132,0,0,0,2.122-2.122V2.122A2.132,2.132,0,0,0,19.112,0ZM6.235,12.8a1.865,1.865,0,0,0,2.471-.923h1.469a3.264,3.264,0,1,1,0-1.549H8.706A1.866,1.866,0,1,0,6.235,12.8Zm10.036.747a3.123,3.123,0,0,1-.94.56,3.256,3.256,0,0,1-3-.338V14.1H11V4.752h1.327V8.387a3.3,3.3,0,0,1,1.593-.557h.238a3.245,3.245,0,0,1,2.115,5.713Zm-.2-2.447a1.861,1.861,0,1,1-3.722,0,1.866,1.866,0,0,1,3.722,0Z" fill="#00b8e0"/>
</svg>
