<svg xmlns="http://www.w3.org/2000/svg" width="36.011" height="32" viewBox="0 0 36.011 32">
  <path id="Path_3395" data-name="Path 3395" d="M-2.937-25H-5.312l3.188,11H-9.437l-2.25-3H-14.25l1.438,5L-14.25-7h2.563l2.25-3h7.313L-5.312,1h2.375l6.25-11h7.25a6.061,6.061,0,0,0,2.563-.687A4.91,4.91,0,0,0,15-12a4.91,4.91,0,0,0-1.875-1.312A6.061,6.061,0,0,0,10.563-14H3.313Zm1.125-3a.979.979,0,0,1,.875.5l6,10.5h5.5a9.712,9.712,0,0,1,4.906,1.531Q18.062-13.938,18.063-12T15.469-8.531A9.712,9.712,0,0,1,10.563-7h-5.5l-6,10.5a.979.979,0,0,1-.875.5H-7.937a.978.978,0,0,1-.812-.406.791.791,0,0,1-.125-.844L-6.125-7H-7.937L-9.875-4.375A1.008,1.008,0,0,1-10.687-4h-6.25a.921.921,0,0,1-.781-.375,1.163,1.163,0,0,1-.219-.875l2-6.75-2-6.75a1.163,1.163,0,0,1,.219-.875A.921.921,0,0,1-16.937-20h6.25a1.008,1.008,0,0,1,.813.375L-7.937-17h1.813l-2.75-9.75a.526.526,0,0,1-.062-.437,1.389,1.389,0,0,1,.188-.437.764.764,0,0,1,.344-.281A1.177,1.177,0,0,1-7.937-28Z" transform="translate(17.949 28)" fill="#00b8e0"/>
</svg>
