<svg xmlns="http://www.w3.org/2000/svg" xmlns:xlink="http://www.w3.org/1999/xlink" width="366.982" height="676.223" viewBox="0 0 366.982 676.223">
  <defs>
    <linearGradient id="linear-gradient" x1="0.5" x2="0.5" y2="1" gradientUnits="objectBoundingBox">
      <stop offset="0" stop-color="#f5f5f5"/>
      <stop offset="0.507" stop-color="#e8e8e8"/>
      <stop offset="1" stop-color="#f5f5f5"/>
    </linearGradient>
  </defs>
  <g id="Group_6141" data-name="Group 6141" transform="translate(-1823 2411)">
    <path id="Path_3391" data-name="Path 3391" d="M37.81,0H319.163c20.882,0,37.81,15.49,37.81,34.6V634.953c0,19.107-16.928,34.6-37.81,34.6H37.81c-20.882,0-37.81-15.49-37.81-34.6V34.6C0,15.49,16.928,0,37.81,0Z" transform="translate(1826.336 -2407.664)" fill="#e8e8e8"/>
    <path id="Rectangle_2704_-_Outline" data-name="Rectangle 2704 - Outline" d="M38.146.055C17.264.055.336,15.558.336,34.681v600.86c0,19.123,16.928,34.626,37.81,34.626H319.5c20.882,0,37.81-15.5,37.81-34.626V34.681c0-19.123-16.928-34.626-37.81-34.626H38.146m0-3.055H319.5A44.161,44.161,0,0,1,335.516-.038a41.406,41.406,0,0,1,13.078,8.074,37.555,37.555,0,0,1,8.817,11.976,34.743,34.743,0,0,1,3.235,14.668v600.86a34.743,34.743,0,0,1-3.235,14.668,37.554,37.554,0,0,1-8.817,11.976,41.4,41.4,0,0,1-13.078,8.074,44.155,44.155,0,0,1-16.017,2.963H38.146a44.156,44.156,0,0,1-16.017-2.963,41.4,41.4,0,0,1-13.078-8.074A37.553,37.553,0,0,1,.235,650.21,34.743,34.743,0,0,1-3,635.541V34.681A34.743,34.743,0,0,1,.235,20.013,37.554,37.554,0,0,1,9.052,8.036,41.406,41.406,0,0,1,22.129-.038,44.162,44.162,0,0,1,38.146-3Z" transform="translate(1826 -2408)" fill="url(#linear-gradient)"/>
    <path id="Path_3392" data-name="Path 3392" d="M0,0H3.336V46.707H0Z" transform="translate(2186.646 -2205.102)" fill="#d0d0d0"/>
    <path id="Path_3393" data-name="Path 3393" d="M0,0H3.336V93.414H0Z" transform="translate(2186.646 -2333.686)" fill="#d0d0d0"/>
  </g>
</svg>
