<svg xmlns="http://www.w3.org/2000/svg" width="1856.335" height="309.545" viewBox="0 0 1856.335 309.545">
  <g id="Group_6046" data-name="Group 6046" transform="translate(8.247 -4826.666)" opacity="0.8">
    <g id="freepik--background-complete--inject-167" transform="translate(1244.752 4791.666)">
      <rect id="Rectangle_2726" data-name="Rectangle 2726" width="55.186" height="37.203" transform="translate(-949.284 118.148) rotate(-32.4)" fill="#3bdcff"/>
      <path id="Path_2279" data-name="Path 2279" d="M664.806,255.828l-.388-.575-1.079-1.654c-.949-1.439-2.331-3.582-4.071-6.3l-14.573-22.759.288.072-46.554,29.607c0,.086.144-.7,0-.36h0l.086.129.158.273.331.518.662,1.05c.446.691.892,1.439,1.323,2.072l2.6,4.114c1.726,2.719,3.438,5.409,5.093,8.042l9.567,15.091-.331-.072L651.513,263.9l9.639-6.042,2.575-1.6.676-.4.245-.144-.2.144-.633.417L661.3,257.9l-9.351,6.272-33.607,21.436-.23.144-.144-.2c-3.035-4.791-6.244-9.84-9.6-15.091l-5.093-8.028-2.618-4.115-1.309-2.072-.662-1.05-.345-.518-.158-.259-.086-.144h0c-.086.331.1-.46.086-.374l46.612-29.535.187-.115.115.187c6.042,9.6,10.991,17.494,14.386,23.018,1.7,2.7,3.021,4.834,3.942,6.316l1.021,1.64A1.738,1.738,0,0,1,664.806,255.828Z" transform="translate(-1547.559 -135.862)" fill="#e0e0e0"/>
      <path id="Path_2280" data-name="Path 2280" d="M644.79,224.37a3.781,3.781,0,0,1-.129.676c-.115.5-.273,1.137-.46,1.942-.446,1.726-1.065,4.143-1.813,7.092-1.611,6.057-3.8,14.386-6.244,23.579v.216h-.23l-1.726-.173-25.421-2.532-7.7-.834-2.086-.259a4.575,4.575,0,0,1-.734-.115,2.88,2.88,0,0,1,.734,0l2.1.144,7.726.662,25.435,2.388,1.726.158-.288.2c2.5-9.222,4.747-17.494,6.4-23.522.82-2.949,1.439-5.337,1.971-7.064l.561-1.913A5.258,5.258,0,0,1,644.79,224.37Z" transform="translate(-1547.482 -135.81)" fill="#e0e0e0"/>
      <path id="Path_2281" data-name="Path 2281" d="M671.627,179.821c1.439,5.107.374,8.632-2.719,9.524a3.323,3.323,0,0,1-4.316-2.331,6.935,6.935,0,0,1-5.093,4.963,8.071,8.071,0,0,1-4.316-15.523,6.963,6.963,0,0,1,6.833,1.439l-.849-3.05,1.913-.46,3.194,11.408c.475,1.683,1.439,2.043,2.5,1.755,1.87-.518,2.417-3.165,1.28-7.193-1.985-7.064-8.373-10.329-15.652-8.3s-11.02,8.416-9.02,15.537,8.358,10.732,15.667,8.632a13.855,13.855,0,0,0,5.409-2.877l.921,1.324a15.321,15.321,0,0,1-5.9,3.151c-8.272,2.316-15.523-1.8-17.753-9.768s1.942-15.206,10.243-17.523S669.425,171.937,671.627,179.821Zm-8.33,2.69a5.956,5.956,0,1,0-4.014,7.639,5.755,5.755,0,0,0,4.014-7.639Z" transform="translate(-96.44 -17.949)" fill="#10cff8"/>
      <rect id="Rectangle_2727" data-name="Rectangle 2727" width="33.117" height="49.129" transform="translate(548.301 302.879) rotate(-77.76)" fill="#10cff8"/>
      <path id="Path_2282" data-name="Path 2282" d="M719.443,228.767a3.255,3.255,0,0,1-.5.345l-1.511.935-5.6,3.366-18.7,11.02-.173.115-.13-.158-.993-1.194L677.32,225.688,673,220.351l-1.18-1.439a4.193,4.193,0,0,1-.374-.532,2.653,2.653,0,0,1,.46.46l1.223,1.439,4.474,5.251c3.784,4.489,8.934,10.631,14.631,17.422l.978,1.18h-.3l18.7-10.9,5.668-3.237,1.539-.849a2.328,2.328,0,0,1,.619-.374Z" transform="translate(-116.113 52.188)" fill="#e0e0e0"/>
      <path id="Path_2283" data-name="Path 2283" d="M666.56,245.97a118.467,118.467,0,0,1,10.214-8.445,116.86,116.86,0,0,1,10.689-7.855,123.055,123.055,0,0,1-10.229,8.445A116.963,116.963,0,0,1,666.56,245.97Z" transform="translate(-118.258 57.14)" fill="#e0e0e0"/>
      <path id="Path_2284" data-name="Path 2284" d="M703.351,254.626a16.977,16.977,0,0,1-1.87-3.007c-1.079-1.913-2.5-4.56-4.057-7.51s-2.877-5.654-3.856-7.639a16.832,16.832,0,0,1-1.439-3.28,17.065,17.065,0,0,1,1.856,2.978c1.065,1.913,2.518,4.575,4.057,7.538s2.877,5.668,3.884,7.654a16.659,16.659,0,0,1,1.424,3.266Z" transform="translate(-107.042 58.684)" fill="#e0e0e0"/>
      <rect id="Rectangle_2728" data-name="Rectangle 2728" width="44.957" height="66.695" transform="translate(-784.337 307.377) rotate(-64.95)" fill="#3bdcff"/>
      <path id="Path_2285" data-name="Path 2285" d="M563.7,365.254s.1-.273.331-.762L565,362.3l3.784-8.229c3.28-7.107,7.97-17.264,13.7-29.665l.13.36-60.423-28.183.432-.158h0v.086l-.086.173-.158.345-.316.676-.633,1.352c-.417.906-.834,1.8-1.266,2.7l-2.489,5.323L512.7,317.549c-3.179,6.819-6.258,13.365-9.164,19.565l-.144-.388,43.418,20.443,12.43,5.9,3.309,1.582.849.417.3.158-.288-.1-.834-.374-3.28-1.439-12.43-5.755-43.72-20.27-.273-.13.13-.259L512.12,317.3q2.4-5.122,4.863-10.416c.834-1.755,1.655-3.539,2.489-5.337.432-.892.849-1.784,1.266-2.69l.633-1.352.317-.676.158-.345.086-.173v-.086h0l.432-.158,60.423,28.3.245.1-.115.245c-5.855,12.387-10.66,22.572-14.027,29.679-1.654,3.5-2.964,6.244-3.87,8.128L564,364.635C563.81,365.023,563.7,365.254,563.7,365.254Z" transform="translate(-1287.623 -29.667)" fill="#e0e0e0"/>
      <path id="Path_2286" data-name="Path 2286" d="M576.8,324.46a3.7,3.7,0,0,1-.777.316l-2.273.777-8.416,2.762-28.068,8.991-.273.072-.115-.245-.964-1.856-13.94-27.564-4.158-8.373-1.108-2.3a3.1,3.1,0,0,1-.331-.82,7.709,7.709,0,0,1,.46.762c.3.576.7,1.309,1.209,2.244l4.316,8.286,14.113,27.463.949,1.87-.389-.173,28.125-8.776,8.488-2.575,2.3-.676a4.65,4.65,0,0,1,.849-.187Z" transform="translate(-1281.697 -29.601)" fill="#e0e0e0"/>
      <path id="Path_2287" data-name="Path 2287" d="M503.08,329.449c-.086-.187,7.193-3.769,16.141-8s16.357-7.5,16.444-7.308-7.193,3.769-16.127,7.984S503.181,329.636,503.08,329.449Z" transform="translate(-1287.531 -21.743)" fill="#e0e0e0"/>
      <path id="Path_2288" data-name="Path 2288" d="M547.707,353.845a30.037,30.037,0,0,1-1.439-4.575c-.834-2.877-1.913-6.8-3.079-11.178s-2.158-8.358-2.877-11.25a32.832,32.832,0,0,1-.993-4.762,28.081,28.081,0,0,1,1.439,4.561c.82,2.877,1.913,6.8,3.079,11.207s2.172,8.373,2.877,11.279a31.546,31.546,0,0,1,.993,4.719Z" transform="translate(-1271.635 -18.258)" fill="#e0e0e0"/>
      <rect id="Rectangle_2729" data-name="Rectangle 2729" width="48.223" height="71.543" transform="translate(463.278 87.996) rotate(-68.61)" fill="#10cff8"/>
      <path id="Path_2289" data-name="Path 2289" d="M664.009,134.2a4.084,4.084,0,0,1-.82.388l-2.374.993L652,139.119l-29.434,11.509-.273.115-.158-.259-1.136-1.928-16.818-28.542-5.021-8.632c-.561-.978-.993-1.77-1.338-2.374a4,4,0,0,1-.417-.849,4.627,4.627,0,0,1,.532.777c.374.59.863,1.352,1.439,2.316,1.28,2.086,3.05,5.006,5.222,8.632,4.316,7.337,10.373,17.35,16.976,28.427l1.151,1.928-.417-.144,29.506-11.322,8.891-3.338,2.431-.878a5.283,5.283,0,0,1,.877-.36Z" transform="translate(-116.501 -65.007)" fill="#e0e0e0"/>
      <path id="Path_2290" data-name="Path 2290" d="M585.12,145.273c-.1-.187,7.395-4.5,16.731-9.639s17-9.15,17.105-8.963-7.395,4.489-16.746,9.624S585.221,145.446,585.12,145.273Z" transform="translate(-121.888 -56.89)" fill="#e0e0e0"/>
      <path id="Path_2291" data-name="Path 2291" d="M634.869,167.677a36.442,36.442,0,0,1-1.885-4.805c-1.065-2.992-2.5-7.193-4.042-11.768s-2.877-8.79-3.827-11.84c-.475-1.525-.849-2.762-1.093-3.625a4.657,4.657,0,0,1-.3-1.439,35.463,35.463,0,0,1,1.87,4.776c1.065,2.992,2.5,7.193,4.043,11.782s2.877,8.833,3.856,11.883c.475,1.525.849,2.762,1.079,3.611a5.192,5.192,0,0,1,.3,1.424Z" transform="translate(-104.956 -53.585)" fill="#e0e0e0"/>
      <rect id="Rectangle_2730" data-name="Rectangle 2730" width="71.543" height="48.223" transform="translate(69.248 296.974) rotate(-11.73)" fill="#10cff8"/>
      <path id="Path_2292" data-name="Path 2292" d="M669.882,303.77a4.921,4.921,0,0,1-.46.777c-.374.532-.863,1.252-1.439,2.129l-5.452,7.783L644.174,340.2l-.173.23-.259-.129-2.014-.993L612.05,324.587l-8.948-4.532-2.417-1.252a5.009,5.009,0,0,1-.835-.489,5.4,5.4,0,0,1,.892.36l2.474,1.151,9.049,4.316,29.751,14.487,2.014.993-.432.1,18.515-25.55,5.639-7.653,1.554-2.057a5.324,5.324,0,0,1,.576-.691Z" transform="translate(-530.601 -21.332)" fill="#e0e0e0"/>
      <path id="Path_2293" data-name="Path 2293" d="M606.762,357.34c-.187-.086,3.74-7.8,8.747-17.264s9.236-16.947,9.423-16.846-3.74,7.8-8.761,17.264S606.949,357.426,606.762,357.34Z" transform="translate(-527.572 -12.797)" fill="#e0e0e0"/>
      <path id="Path_2294" data-name="Path 2294" d="M663.749,343.266a36.176,36.176,0,0,1-4.2-2.992c-2.532-1.928-6-4.632-9.812-7.654s-7.193-5.754-9.682-7.826c-1.223-1.007-2.215-1.841-2.877-2.446a5.178,5.178,0,0,1-1.007-.978,35.439,35.439,0,0,1,4.172,2.978c2.532,1.928,6.014,4.632,9.84,7.654s7.193,5.755,9.711,7.841c1.223,1.021,2.216,1.856,2.877,2.446S663.792,343.223,663.749,343.266Z" transform="translate(-514.67 -13.612)" fill="#e0e0e0"/>
      <rect id="Rectangle_2731" data-name="Rectangle 2731" width="88.274" height="59.502" transform="translate(-1253 52.946) rotate(-11.73)" fill="#10cff8"/>
      <path id="Path_2295" data-name="Path 2295" d="M349.563,78.18a7.406,7.406,0,0,1-.59.949c-.446.676-1.05,1.539-1.784,2.633l-6.733,9.6-22.63,31.751-.216.3-.331-.158-2.489-1.223-36.613-18.213-11.049-5.6-2.978-1.554a5.753,5.753,0,0,1-1.021-.6,6.026,6.026,0,0,1,1.093.446l3.05,1.439,11.178,5.352,36.728,17.925,2.431,1.295-.547.144c8.948-12.387,16.99-23.493,22.86-31.65l6.949-9.452,1.913-2.532a5.017,5.017,0,0,1,.777-.849Z" transform="translate(-1516.122 -43.157)" fill="#e0e0e0"/>
      <path id="Path_2296" data-name="Path 2296" d="M271.672,144.267c-.23-.115,4.6-9.624,10.79-21.234s11.394-20.918,11.624-20.8-4.676,9.624-10.8,21.249S271.888,144.382,271.672,144.267Z" transform="translate(-1512.379 -32.609)" fill="#e0e0e0"/>
      <path id="Path_2297" data-name="Path 2297" d="M341.993,126.907a43.965,43.965,0,0,1-5.179-3.7c-3.136-2.374-7.409-5.755-12.113-9.423s-8.905-7.193-11.941-9.653c-1.525-1.266-2.748-2.287-3.582-3.021s-1.28-1.165-1.237-1.223a44.7,44.7,0,0,1,5.15,3.683c3.122,2.374,7.423,5.755,12.128,9.452s8.948,7.193,11.984,9.668c1.525,1.266,2.733,2.287,3.568,3.021S342.036,126.864,341.993,126.907Z" transform="translate(-1496.468 -33.635)" fill="#e0e0e0"/>
      <path id="Path_2432" data-name="Path 2432" d="M671.627,179.821c1.439,5.107.374,8.632-2.719,9.524a3.323,3.323,0,0,1-4.316-2.331,6.935,6.935,0,0,1-5.093,4.963,8.071,8.071,0,0,1-4.316-15.523,6.963,6.963,0,0,1,6.833,1.439l-.849-3.05,1.913-.46,3.194,11.408c.475,1.683,1.439,2.043,2.5,1.755,1.87-.518,2.417-3.165,1.28-7.193-1.985-7.064-8.373-10.329-15.652-8.3s-11.02,8.416-9.02,15.537,8.358,10.732,15.667,8.632a13.855,13.855,0,0,0,5.409-2.877l.921,1.324a15.321,15.321,0,0,1-5.9,3.151c-8.272,2.316-15.523-1.8-17.753-9.768s1.942-15.206,10.243-17.523S669.425,171.937,671.627,179.821Zm-8.33,2.69a5.956,5.956,0,1,0-4.014,7.639,5.755,5.755,0,0,0,4.014-7.639Z" transform="translate(-1775.44 82.25)" fill="#10cff8"/>
      <path id="Path_2433" data-name="Path 2433" d="M671.627,179.821c1.439,5.107.374,8.632-2.719,9.524a3.323,3.323,0,0,1-4.316-2.331,6.935,6.935,0,0,1-5.093,4.963,8.071,8.071,0,0,1-4.316-15.523,6.963,6.963,0,0,1,6.833,1.439l-.849-3.05,1.913-.46,3.194,11.408c.475,1.683,1.439,2.043,2.5,1.755,1.87-.518,2.417-3.165,1.28-7.193-1.985-7.064-8.373-10.329-15.652-8.3s-11.02,8.416-9.02,15.537,8.358,10.732,15.667,8.632a13.855,13.855,0,0,0,5.409-2.877l.921,1.324a15.321,15.321,0,0,1-5.9,3.151c-8.272,2.316-15.523-1.8-17.753-9.768s1.942-15.206,10.243-17.523S669.425,171.937,671.627,179.821Zm-8.33,2.69a5.956,5.956,0,1,0-4.014,7.639,5.755,5.755,0,0,0,4.014-7.639Z" transform="translate(-1408.44 -47.781)" fill="#10cff8"/>
    </g>
    <path id="Path_2403" data-name="Path 2403" d="M498.031,183.651c-1.375,4.235-3.752,6.226-6.322,5.393a2.8,2.8,0,0,1-1.931-3.62,5.828,5.828,0,0,1-5.864,1.1,6.769,6.769,0,0,1,4.163-12.862,5.864,5.864,0,0,1,4.09,4.223l.808-2.522,1.629.531-3.065,9.435c-.459,1.4.084,2.124.929,2.413,1.544.495,3.161-1.1,4.259-4.464,1.894-5.852-1.05-11.1-7.083-13.067s-11.6.76-13.514,6.672.857,11.378,6.914,13.272a11.438,11.438,0,0,0,5.14.459v1.363a12.85,12.85,0,0,1-5.574-.543c-6.853-2.22-10.015-8.446-7.867-15.058s8.446-9.725,15.287-7.493S500.142,177.075,498.031,183.651Zm-7.07-1.991a5,5,0,1,0-6.359,3.475,4.826,4.826,0,0,0,6.359-3.523Z" transform="translate(886.922 4813.271)" fill="#10cff8"/>
    <path id="Path_2404" data-name="Path 2404" d="M374.633,194.05c.265,3.451-.857,5.586-2.956,5.743a2.172,2.172,0,0,1-2.473-2.039,4.5,4.5,0,0,1-3.9,2.534,5.273,5.273,0,0,1-.808-10.5,4.573,4.573,0,0,1,4.2,1.834l-.169-2.063,1.327-.1.591,7.71c.1,1.134.688,1.5,1.388,1.448,1.207-.1,1.955-1.725,1.737-4.476-.374-4.826-4.054-7.686-8.977-7.312s-8.12,3.994-7.746,8.808a7.879,7.879,0,0,0,8.929,7.553,9.061,9.061,0,0,0,3.837-1.207l.422.977a9.774,9.774,0,0,1-4.175,1.207,8.953,8.953,0,0,1-10.135-8.506c-.41-5.405,3.173-9.5,8.8-9.93S374.162,188.717,374.633,194.05Zm-5.683.664a3.885,3.885,0,1,0-3.547,4.38,3.8,3.8,0,0,0,3.547-4.38Z" transform="translate(-163.144 4711.362)" fill="#0a5d6b"/>
    <path id="Path_2405" data-name="Path 2405" d="M486.744,325.174c-1.532,3.752-3.837,5.381-6.105,4.44a2.522,2.522,0,0,1-1.5-3.415,5.333,5.333,0,0,1-5.393.579,6.154,6.154,0,0,1,4.682-11.366,5.321,5.321,0,0,1,3.4,4.175l.917-2.232,1.436.591-3.439,8.35c-.507,1.207-.072,1.931.676,2.232,1.363.567,2.944-.76,4.175-3.74,2.124-5.176-.181-10.147-5.514-12.343s-10.558-.121-12.717,5.1,0,10.364,5.345,12.573a10.521,10.521,0,0,0,4.621.772l-.072,1.206a11.366,11.366,0,0,1-5.019-.881c-6.033-2.486-8.446-8.362-6.033-14.2s8.313-8.217,14.394-5.719S489.073,319.407,486.744,325.174Zm-6.262-2.292a4.549,4.549,0,1,0-6.033,2.7,4.44,4.44,0,0,0,6.033-2.7Z" transform="translate(1039.495 4782.988)" fill="#10cff8"/>
    <path id="Path_2406" data-name="Path 2406" d="M573.548,273.3c-1.544,3.74-3.837,5.369-6.105,4.44a2.546,2.546,0,0,1-1.508-3.427,5.3,5.3,0,0,1-5.393.591,6.154,6.154,0,0,1,4.682-11.366,5.321,5.321,0,0,1,3.415,4.1l.917-2.22,1.424.591-3.439,8.35c-.507,1.207-.072,1.918.676,2.232,1.376.567,2.956-.772,4.175-3.74,2.136-5.188-.181-10.147-5.5-12.343s-10.57-.133-12.717,5.092a9.218,9.218,0,0,0,5.333,12.585,10.545,10.545,0,0,0,4.633.772l-.072,1.207a11.717,11.717,0,0,1-5.019-.881c-6.033-2.5-8.446-8.362-6.093-14.2s8.313-8.229,14.394-5.719S575.925,267.576,573.548,273.3Zm-6.274-2.3a4.537,4.537,0,1,0-6.033,2.715,4.44,4.44,0,0,0,6.033-2.715Z" transform="translate(1105.563 4803.828)" fill="#2f84ac"/>
    <path id="Path_2407" data-name="Path 2407" d="M465.343,134.269c-1.713,4.151-4.259,5.96-6.781,4.923a2.811,2.811,0,0,1-1.653-3.8,5.852,5.852,0,0,1-6.033.652,6.817,6.817,0,0,1,5.188-12.6A5.876,5.876,0,0,1,459.841,128l1.014-2.413,1.593.652-3.813,9.254c-.567,1.375-.085,2.148.748,2.486,1.52.627,3.27-.857,4.633-4.151,2.353-5.743-.205-11.257-6.117-13.695s-11.716-.133-14.093,5.659,0,11.511,5.912,13.948a11.7,11.7,0,0,0,5.128.857l-.072,1.363a12.826,12.826,0,0,1-5.574-.977c-6.709-2.763-9.411-9.267-6.745-15.686s9.218-9.122,15.963-6.347S467.973,127.874,465.343,134.269Zm-6.962-2.546a5.044,5.044,0,1,0-4,3.386A5.031,5.031,0,0,0,458.381,131.723Z" transform="translate(1034.569 4743.232)" fill="#0a5d6b"/>
    <path id="Path_2408" data-name="Path 2408" d="M407.4,239.581c1.351,3.511.845,6.033-1.279,6.9a2.413,2.413,0,0,1-3.21-1.351,4.911,4.911,0,0,1-3.258,3.849,5.719,5.719,0,0,1-4.114-10.666,4.947,4.947,0,0,1,4.923.591l-.8-2.087,1.339-.519,3.016,7.831c.446,1.207,1.207,1.351,1.894,1.086,1.279-.495,1.484-2.413.41-5.2-1.87-4.826-6.612-6.733-11.607-4.826s-7.239,6.672-5.309,11.571a8.567,8.567,0,0,0,11.643,5.08,9.8,9.8,0,0,0,3.62-2.413l.748.881a10.764,10.764,0,0,1-3.958,2.618c-5.683,2.2-11.076-.217-13.188-5.7s.35-10.859,6.033-13.055S405.279,234.139,407.4,239.581Zm-5.707,2.413a4.223,4.223,0,1,0-2.317,5.671,4.127,4.127,0,0,0,2.293-5.623Z" transform="translate(661.848 4859.975)" fill="#10cff8"/>
    <g id="Group_6038" data-name="Group 6038" transform="translate(-72.608 -156.615)">
      <rect id="Rectangle_2735" data-name="Rectangle 2735" width="41.88" height="28.222" transform="matrix(0.921, -0.39, 0.39, 0.921, 1410.767, 5067.01)" fill="#0a5d6b"/>
      <path id="Path_2409" data-name="Path 2409" d="M436.964,300.964s-.084-.169-.217-.471-.35-.784-.6-1.376l-2.256-5.224c-1.931-4.513-4.706-10.98-8.072-18.859l.205.085L387.482,291.48c0,.06.205-.507.109-.253h0v.193l.1.217.181.434.362.869c.253.567.495,1.146.736,1.713l1.436,3.4,2.811,6.648,5.357,12.548-.241-.1,27.751-11.668,7.963-3.318,2.136-.869.555-.229.193-.072-.169.084-.531.229-2.075.9-7.891,3.4-27.824,11.873-.169.072-.072-.169c-1.677-3.958-3.463-8.132-5.3-12.488q-1.388-3.258-2.823-6.648l-1.436-3.4-.736-1.713-.362-.869-.181-.434-.1-.217v-.109h0c-.109.229.121-.338.109-.278l38.611-16.289.145-.06.072.157,7.951,19.016c.929,2.244,1.665,3.994,2.172,5.212.229.591.422,1.038.555,1.363S436.964,300.964,436.964,300.964Z" transform="translate(1023.372 4775.67)" fill="#0a5d6b"/>
      <path id="Path_2410" data-name="Path 2410" d="M425.932,275a2.869,2.869,0,0,1-.181.495c-.145.35-.35.808-.591,1.388l-2.244,5.092c-1.955,4.32-4.621,10.256-7.6,16.892l-.072.157h-.169l-1.267-.338-18.714-5.08-5.659-1.713-1.532-.446-.531-.181.555.1,1.544.386,5.7,1.448,18.738,4.959,1.279.338-.241.121,7.722-16.82c.977-2.1,1.786-3.813,2.413-5.031l.652-1.363A2.776,2.776,0,0,1,425.932,275Z" transform="translate(1023.399 4775.693)" fill="#2f84ac"/>
      <path id="Path_2411" data-name="Path 2411" d="M396.6,313.886a99.066,99.066,0,0,1,2.968-10.859,100.706,100.706,0,0,1,3.62-10.726,105.333,105.333,0,0,1-2.98,10.859A105.948,105.948,0,0,1,396.6,313.886Z" transform="translate(1025.306 4779.268)" fill="#2f84ac"/>
      <path id="Path_2412" data-name="Path 2412" d="M431.59,298.12a14.592,14.592,0,0,1-2.787-1.207c-1.677-.8-3.982-1.943-6.5-3.246s-4.826-2.51-6.443-3.415a14.735,14.735,0,0,1-2.606-1.593,15.237,15.237,0,0,1,2.763,1.207c1.677.8,3.994,1.943,6.528,3.246s4.826,2.522,6.467,3.427a15.177,15.177,0,0,1,2.582,1.581Z" transform="translate(1028.746 4778.516)" fill="#2f84ac"/>
    </g>
    <g id="Group_6037" data-name="Group 6037" transform="translate(-1221.782 24.84)">
      <rect id="Rectangle_2737" data-name="Rectangle 2737" width="47.213" height="70.042" transform="translate(1486.313 5034.274) rotate(-85.59)" fill="#2f84ac"/>
      <path id="Path_2416" data-name="Path 2416" d="M522.833,227.768a3.839,3.839,0,0,1-.64.6l-1.955,1.6L513,235.815l-24.264,19.209-.229.181-.205-.193-1.629-1.484-23.9-21.948-7.239-6.709-1.931-1.846a4.4,4.4,0,0,1-.639-.676,5.719,5.719,0,0,1,.736.579l2.015,1.75,7.336,6.54,24.035,21.718,1.629,1.484h-.446l24.4-19.04,7.372-5.671,2.027-1.508a5.312,5.312,0,0,1,.772-.434Z" transform="translate(1036.949 4764.816)" fill="#0a5d6b"/>
      <path id="Path_2417" data-name="Path 2417" d="M450,266.33c-.133-.121,5.671-6.286,12.947-13.767s13.272-13.441,13.405-13.272-5.671,6.274-12.959,13.767S450.157,266.451,450,266.33Z" transform="translate(1036.337 4768.316)" fill="#0a5d6b"/>
      <path id="Path_2418" data-name="Path 2418" d="M511.283,270.665a5.934,5.934,0,0,1-.881-1.026l-2.22-2.956c-1.858-2.51-4.38-6.033-7.131-9.87s-5.237-7.408-7-9.978c-.808-1.207-1.508-2.244-2.075-3.089a6.029,6.029,0,0,1-.688-1.207,5.78,5.78,0,0,1,.869,1.013l2.22,2.956c1.858,2.5,4.38,6.033,7.155,9.882s5.237,7.433,7,10l2.075,3.077a5.66,5.66,0,0,1,.676,1.195Z" transform="translate(1044.867 4768.988)" fill="#0a5d6b"/>
    </g>
    <g id="Group_6040" data-name="Group 6040" transform="translate(-843.394 -77.19)">
      <path id="Path_2419" data-name="Path 2419" d="M457.032,199.4a2.932,2.932,0,0,0-.109-.652l-.3-1.87c-.241-1.653-.6-4.054-1.074-7.107-.9-6.141-2.2-14.937-3.789-25.652l.241.181-52.378,7.565c-.06.06.41-.555.217-.29h0v.555l.084.591.157,1.207c.121.784.229,1.569.338,2.341.229,1.556.446,3.1.664,4.633.434,3.053.869,6.033,1.291,9.025.845,5.912,1.653,11.6,2.413,16.977l-.265-.205,37.814-5.273,10.859-1.484,2.884-.386.748-.1h.036l-.724.121-2.823.434-10.739,1.6-37.838,5.55h-.229v-.241c-.772-5.381-1.593-11.052-2.413-16.964-.434-2.956-.857-6.033-1.3-9.025-.217-1.532-.446-3.077-.664-4.633-.109-.772-.229-1.556-.338-2.329l-.169-1.207-.084-.591v-.567h0c-.193.265.265-.362.229-.29l52.221-7.433h.205v.205c1.508,10.775,2.739,19.631,3.62,25.809.41,3.041.736,5.43.965,7.083.1.784.181,1.4.241,1.834A1.506,1.506,0,0,1,457.032,199.4Z" transform="translate(1025.903 4752.74)" fill="#0a5d6b"/>
      <path id="Path_2420" data-name="Path 2420" d="M451.976,164.06a2.979,2.979,0,0,1-.374.543l-1.206,1.508L446,171.6l-14.72,18.159-.145.169-.193-.109-1.436-.82-21.236-12.235-6.407-3.752-1.725-1.038a5.794,5.794,0,0,1-.591-.4,3.416,3.416,0,0,1,.639.3l1.774.965,6.491,3.62,21.308,12.066,1.448.82-.338.06,14.865-18.1,4.5-5.405,1.207-1.436a3.622,3.622,0,0,1,.531-.41Z" transform="translate(1025.916 4752.775)" fill="#0a5d6b"/>
      <path id="Path_2421" data-name="Path 2421" d="M403.841,203.945c-.145-.1,3.089-5.611,7.239-12.331s7.614-12.066,7.758-11.993-3.089,5.611-7.239,12.331S404.034,204.029,403.841,203.945Z" transform="translate(1026.801 4755.99)" fill="#0a5d6b"/>
      <path id="Path_2422" data-name="Path 2422" d="M450.5,196.3a22.244,22.244,0,0,1-2.98-2.413c-1.786-1.532-4.223-3.692-6.9-6.033s-5.068-4.609-6.781-6.226a25.345,25.345,0,0,1-2.715-2.739,21.474,21.474,0,0,1,2.968,2.413c1.786,1.532,4.235,3.62,6.914,6.033s5.092,4.621,6.805,6.25A22.188,22.188,0,0,1,450.5,196.3Z" transform="translate(1032.438 4755.839)" fill="#0a5d6b"/>
    </g>
    <g id="Group_6039" data-name="Group 6039" transform="translate(2.042 65.627)">
      <rect id="Rectangle_2739" data-name="Rectangle 2739" width="46.284" height="31.202" transform="translate(1556.054 4847.771)" fill="#2f84ac"/>
      <path id="Path_2426" data-name="Path 2426" d="M554.081,106.82a4.276,4.276,0,0,1-.4.422l-1.207,1.207-4.488,4.211-15,13.888-.145.133-.145-.121-1.207-.893L514.6,112.394l-5.08-4.042-1.363-1.122a2.569,2.569,0,0,1-.458-.41,3.531,3.531,0,0,1,.507.338l1.424,1.05,5.164,3.946,16.892,13.116,1.207.893h-.3L547.7,112.37l4.573-4.114,1.207-1.1A2.57,2.57,0,0,1,554.081,106.82Z" transform="translate(1048.257 4740.951)" fill="#0a5d6b"/>
      <line id="Line_6" data-name="Line 6" x1="14.346" y2="19.788" transform="translate(1556.054 4859.186)" fill="#263238"/>
      <path id="Path_2427" data-name="Path 2427" d="M507.78,136.058a115.321,115.321,0,0,1,6.914-10.075,120.666,120.666,0,0,1,7.432-9.653,115.337,115.337,0,0,1-6.914,10.075A120.646,120.646,0,0,1,507.78,136.058Z" transform="translate(1048.273 4742.916)" fill="#0a5d6b"/>
      <line id="Line_7" data-name="Line 7" x1="12.85" y1="19.631" transform="translate(1589.488 4859.33)" fill="#263238"/>
      <path id="Path_2428" data-name="Path 2428" d="M535.49,116.4a110.062,110.062,0,0,1,6.684,9.653,108.4,108.4,0,0,1,6.166,9.99,110.089,110.089,0,0,1-6.684-9.653,113.763,113.763,0,0,1-6.166-9.99Z" transform="translate(1053.998 4742.93)" fill="#0a5d6b"/>
    </g>
  </g>
</svg>
