<svg xmlns="http://www.w3.org/2000/svg" width="32.002" height="28.031" viewBox="0 0 32.002 28.031">
  <path id="Path_3394" data-name="Path 3394" d="M-14.969-14a.973.973,0,0,1-.719-.281A.973.973,0,0,1-15.969-15v-1a.973.973,0,0,1,.281-.719A.973.973,0,0,1-14.969-17h21a2.853,2.853,0,0,0,2.406-1.219,2.945,2.945,0,0,0,.469-2.719,2.831,2.831,0,0,0-1.937-1.937,3,3,0,0,0-2.406.25A2.871,2.871,0,0,0,3.156-20.75a.945.945,0,0,1-.937.75H1.031a.937.937,0,0,1-.5-.156.809.809,0,0,1-.344-.406.824.824,0,0,1-.031-.5,5.924,5.924,0,0,1,2.5-3.906,5.685,5.685,0,0,1,4.688-.906,5.887,5.887,0,0,1,2.938,1.625,5.887,5.887,0,0,1,1.625,2.938,5.892,5.892,0,0,1-1.25,5.094A5.712,5.712,0,0,1,6.031-14Zm9,2A5.712,5.712,0,0,1-1.344-9.781,5.892,5.892,0,0,1-.094-4.687,5.887,5.887,0,0,1-1.719-1.75,5.887,5.887,0,0,1-4.656-.125a5.66,5.66,0,0,1-4.656-.906,5.891,5.891,0,0,1-2.531-3.906.692.692,0,0,1,.188-.719A.919.919,0,0,1-10.969-6h1.188a.945.945,0,0,1,.938.75A2.871,2.871,0,0,0-7.437-3.375a3,3,0,0,0,2.406.25A2.831,2.831,0,0,0-3.094-5.062a2.844,2.844,0,0,0-.031-1.906A3.223,3.223,0,0,0-4.219-8.437,2.836,2.836,0,0,0-5.969-9h-9a.973.973,0,0,1-.719-.281A.973.973,0,0,1-15.969-10v-1a.973.973,0,0,1,.281-.719A.973.973,0,0,1-14.969-12ZM8.719-12a7.3,7.3,0,0,1,5.094,1.969,6.507,6.507,0,0,1,2.219,4.844,6.8,6.8,0,0,1-2,5.063A6.709,6.709,0,0,1,9.031,2a6.756,6.756,0,0,1-3.062-.719A7.067,7.067,0,0,1,3.563-.656,7.083,7.083,0,0,1,2.219-3.375a.469.469,0,0,1,.094-.437A.5.5,0,0,1,2.719-4H4.781a.49.49,0,0,1,.5.375A4.221,4.221,0,0,0,6.719-1.75,3.75,3.75,0,0,0,9.031-1a3.8,3.8,0,0,0,2.938-1.312,3.971,3.971,0,0,0,1.063-3.062,3.9,3.9,0,0,0-1.406-2.594A4.185,4.185,0,0,0,8.844-9H1.406A7.458,7.458,0,0,0,.219-11.062,9.558,9.558,0,0,0-.719-12Z" transform="translate(15.969 26.031)" fill="#00b8e0"/>
</svg>
