<svg xmlns="http://www.w3.org/2000/svg" width="216.275" height="51" viewBox="0 0 216.275 51">
  <g id="Group_6043" data-name="Group 6043" transform="translate(5389.835 -8514.162)">
    <g id="Group_6042" data-name="Group 6042" transform="translate(-5389.835 8514.162)">
      <rect id="Rectangle_2742" data-name="Rectangle 2742" width="51" height="51" transform="translate(0 0)" fill="#00b8e0"/>
      <path id="Path_2436" data-name="Path 2436" d="M-2865.924-233.3q.143.683.278,1.368,1.325,6.647,2.651,13.294,1.245,6.24,2.49,12.48.969,4.861,1.936,9.723c.031.156.094.191.24.191q6.389,0,12.778,0c.166,0,.219-.045.219-.215q-.007-4.719,0-9.437c0-.161-.05-.2-.208-.2-1.566.005-3.132,0-4.7.008-.174,0-.227-.057-.259-.216q-1.712-8.612-3.432-17.223-.575-2.887-1.146-5.775a5.189,5.189,0,0,0-4.88-4.154c-1.99-.055-3.982-.015-5.972-.013s-3.983-.043-5.972.013a5.189,5.189,0,0,0-4.88,4.154q-.566,2.889-1.147,5.775-1.716,8.611-3.432,17.223c-.031.159-.085.217-.259.216-1.566-.008-3.132,0-4.7-.008-.158,0-.208.043-.208.2q.007,4.719,0,9.437c0,.17.052.215.218.215q6.389-.006,12.779,0c.145,0,.209-.035.24-.191q.961-4.863,1.936-9.723,1.246-6.24,2.49-12.48,1.326-6.647,2.651-13.294.136-.684.277-1.368Z" transform="translate(2891.699 240.652)" fill="#fff"/>
    </g>
    <path id="Path_2437" data-name="Path 2437" d="M10.743-52.4a8.287,8.287,0,0,1,5.789,1.845q2.02,1.845,2.02,5.567v9.522h-4.4v-2.078Q12.823-35.22,9.205-35.22a7.49,7.49,0,0,1-3.241-.651,4.87,4.87,0,0,1-2.1-1.8,4.781,4.781,0,0,1-.724-2.605,4.394,4.394,0,0,1,1.7-3.66,8.5,8.5,0,0,1,5.261-1.334h3.739a3.129,3.129,0,0,0-.935-2.435,4.039,4.039,0,0,0-2.8-.853,7.979,7.979,0,0,0-2.548.419,6.677,6.677,0,0,0-2.126,1.132L3.748-50.386a10.057,10.057,0,0,1,3.181-1.489A13.877,13.877,0,0,1,10.743-52.4Zm-.362,13.926a4.008,4.008,0,0,0,2.141-.574,3.124,3.124,0,0,0,1.327-1.69v-1.706H10.622q-2.894,0-2.894,1.954a1.757,1.757,0,0,0,.709,1.473A3.127,3.127,0,0,0,10.381-38.476Zm22.583,2.2a4.772,4.772,0,0,1-1.7.791,8.385,8.385,0,0,1-2.126.264,6.205,6.205,0,0,1-4.477-1.52,5.91,5.91,0,0,1-1.583-4.466V-48.06h-2.5v-3.722h2.5v-4.063h4.7v4.063h4.04v3.722h-4.04v6.792a2.319,2.319,0,0,0,.528,1.628,1.926,1.926,0,0,0,1.492.574,2.966,2.966,0,0,0,1.9-.62ZM56.09-52.4a6.438,6.438,0,0,1,4.839,1.845q1.794,1.845,1.794,5.536v9.553h-4.7v-8.808a4.614,4.614,0,0,0-.8-2.962,2.773,2.773,0,0,0-2.276-.977,3.309,3.309,0,0,0-2.623,1.1,4.838,4.838,0,0,0-.965,3.272v8.374h-4.7v-8.808q0-3.939-3.075-3.939a3.274,3.274,0,0,0-2.593,1.1,4.838,4.838,0,0,0-.965,3.272v8.374h-4.7V-52.154h4.492v1.923a5.942,5.942,0,0,1,2.216-1.613A7.277,7.277,0,0,1,44.9-52.4a6.812,6.812,0,0,1,3.106.7,5.553,5.553,0,0,1,2.231,2.032,6.684,6.684,0,0,1,2.518-2.016A7.754,7.754,0,0,1,56.09-52.4ZM74.543-35.22a9.506,9.506,0,0,1-4.6-1.1,8.053,8.053,0,0,1-3.181-3.055,8.6,8.6,0,0,1-1.146-4.435,8.6,8.6,0,0,1,1.146-4.435A8.053,8.053,0,0,1,69.944-51.3a9.506,9.506,0,0,1,4.6-1.1,9.419,9.419,0,0,1,4.583,1.1,8.079,8.079,0,0,1,3.166,3.055,8.6,8.6,0,0,1,1.146,4.435,8.6,8.6,0,0,1-1.146,4.435,8.079,8.079,0,0,1-3.166,3.055A9.419,9.419,0,0,1,74.543-35.22Zm0-3.97a3.864,3.864,0,0,0,2.97-1.256,4.763,4.763,0,0,0,1.161-3.365,4.763,4.763,0,0,0-1.161-3.365,3.864,3.864,0,0,0-2.97-1.256,3.911,3.911,0,0,0-2.985,1.256,4.726,4.726,0,0,0-1.176,3.365,4.726,4.726,0,0,0,1.176,3.365A3.911,3.911,0,0,0,74.543-39.19Zm17.186,3.97a15.343,15.343,0,0,1-3.95-.512A10.163,10.163,0,0,1,84.7-37.019l1.568-3.474a9.728,9.728,0,0,0,2.623,1.163,10.709,10.709,0,0,0,3.015.45q2.985,0,2.985-1.52a1.07,1.07,0,0,0-.814-1.024,11.767,11.767,0,0,0-2.5-.527,23.56,23.56,0,0,1-3.286-.713,5.078,5.078,0,0,1-2.246-1.427,4.129,4.129,0,0,1-.95-2.915,4.655,4.655,0,0,1,.889-2.807,5.734,5.734,0,0,1,2.593-1.907A10.8,10.8,0,0,1,92.6-52.4a15.376,15.376,0,0,1,3.422.388,9.4,9.4,0,0,1,2.819,1.07L97.276-47.5A9.157,9.157,0,0,0,92.6-48.742a4.641,4.641,0,0,0-2.261.434,1.277,1.277,0,0,0-.754,1.117,1.1,1.1,0,0,0,.814,1.086,14.071,14.071,0,0,0,2.593.589,27.093,27.093,0,0,1,3.256.729,4.874,4.874,0,0,1,2.2,1.411,4.076,4.076,0,0,1,.935,2.853,4.489,4.489,0,0,1-.9,2.76,5.777,5.777,0,0,1-2.638,1.876A11.457,11.457,0,0,1,91.729-35.22Zm17.97,0a9.506,9.506,0,0,1-4.6-1.1,8.053,8.053,0,0,1-3.181-3.055,8.6,8.6,0,0,1-1.146-4.435,8.6,8.6,0,0,1,1.146-4.435A8.053,8.053,0,0,1,105.1-51.3a9.506,9.506,0,0,1,4.6-1.1,9.419,9.419,0,0,1,4.583,1.1,8.079,8.079,0,0,1,3.166,3.055,8.6,8.6,0,0,1,1.146,4.435,8.6,8.6,0,0,1-1.146,4.435,8.079,8.079,0,0,1-3.166,3.055A9.419,9.419,0,0,1,109.7-35.22Zm0-3.97a3.864,3.864,0,0,0,2.97-1.256,4.763,4.763,0,0,0,1.161-3.365,4.763,4.763,0,0,0-1.161-3.365,3.864,3.864,0,0,0-2.97-1.256,3.911,3.911,0,0,0-2.985,1.256,4.726,4.726,0,0,0-1.176,3.365,4.726,4.726,0,0,0,1.176,3.365A3.911,3.911,0,0,0,109.7-39.19Zm18-13.213a8.287,8.287,0,0,1,5.789,1.845q2.02,1.845,2.02,5.567v9.522h-4.4v-2.078q-1.327,2.326-4.945,2.326a7.49,7.49,0,0,1-3.241-.651,4.87,4.87,0,0,1-2.1-1.8,4.781,4.781,0,0,1-.724-2.605,4.394,4.394,0,0,1,1.7-3.66,8.5,8.5,0,0,1,5.261-1.334H130.8a3.129,3.129,0,0,0-.935-2.435,4.039,4.039,0,0,0-2.8-.853,7.979,7.979,0,0,0-2.548.419,6.676,6.676,0,0,0-2.126,1.132L120.7-50.386a10.057,10.057,0,0,1,3.181-1.489A13.878,13.878,0,0,1,127.7-52.4Zm-.362,13.926a4.008,4.008,0,0,0,2.141-.574,3.124,3.124,0,0,0,1.327-1.69v-1.706h-3.226q-2.895,0-2.894,1.954a1.757,1.757,0,0,0,.709,1.473A3.126,3.126,0,0,0,127.337-38.476ZM143.95-49.952a5.256,5.256,0,0,1,2.276-1.83,8.241,8.241,0,0,1,3.3-.62v4.466Q148.744-48,148.473-48a4.242,4.242,0,0,0-3.166,1.163,4.783,4.783,0,0,0-1.146,3.489v7.878h-4.7V-52.154h4.493Z" transform="translate(-5323.088 8585.37)" fill="#fff"/>
  </g>
</svg>
